<?xml version="1.0" encoding="UTF-8"?>
<svg width="132px" height="24px" viewBox="0 0 132 24" version="1.1" xmlns="http://www.w3.org/2000/svg" xmlns:xlink="http://www.w3.org/1999/xlink">
    <!-- Generator: Sketch 47.1 (45422) - http://www.bohemiancoding.com/sketch -->
    <title>blue_logo@1x</title>
    <desc>Created with Sketch.</desc>
    <defs></defs>
    <g id="Page-1" stroke="none" stroke-width="1" fill="none" fill-rule="evenodd">
        <g id="blue_logo" fill-rule="nonzero" fill="#FFFFFF">
            <path d="M55.7494143,12.1579878 C56.6047577,12.1579878 57.3948015,12.0473439 58.1187396,11.8260562 C58.8421402,11.6050396 59.4674572,11.2893791 59.9938844,10.8796171 C60.5205803,10.4701262 60.9317255,9.97195757 61.2278576,9.38538228 C61.5237209,8.79907818 61.6723244,8.12924879 61.6723244,7.3764365 L61.6723244,7.30999593 C61.6723244,5.87135427 61.1563774,4.74810192 60.1255584,3.93969649 C59.0942018,3.13210463 57.6465944,2.72776632 55.7821985,2.72776632 L48.6755663,2.72776632 L48.6755663,12.1579878 L55.7494143,12.1579878 L55.7494143,12.1579878 Z M46.075946,0.303905978 L55.961705,0.303905978 C57.3848588,0.303905978 58.6494663,0.508651398 59.7555276,0.918142237 C60.8607828,1.32817545 61.7749763,1.89766602 62.4978395,2.62824107 C63.0667248,3.2042401 63.5047423,3.87922202 63.8113546,4.6537292 C64.1176981,5.42877874 64.2714073,6.28057393 64.2714073,7.21047067 L64.2714073,7.27691124 C64.2714073,8.2510113 64.1176981,9.11962002 63.8113546,9.88327975 C63.5047423,10.6469395 63.0726367,11.311074 62.5142316,11.8756832 C61.9555578,12.4400212 61.2931571,12.904834 60.5272983,13.2701215 C59.7606334,13.6356802 58.9289376,13.8957476 58.0311361,14.0505948 L65.1052528,23.5469857 L61.9139058,23.5469857 L55.2409916,14.5154076 L48.6755663,14.5154076 L48.6755663,23.5469857 L46.075946,23.5469857 L46.075946,0.303905978 L46.075946,0.303905978 Z" id="Fill-15"></path>
            <polyline id="Fill-16" points="75.7219367 2.72776632 67.9894502 2.72776632 67.9894502 0.303905978 86.0537749 0.303905978 86.0537749 2.72776632 78.3212884 2.72776632 78.3212884 23.5469857 75.7219367 23.5469857 75.7219367 2.72776632"></polyline>
            <polyline id="Fill-17" points="90.9558087 0.303905978 107.604773 0.303905978 107.604773 2.69468163 93.555429 2.69468163 93.555429 10.6303971 106.124112 10.6303971 106.124112 13.0211728 93.555429 13.0211728 93.555429 21.1564812 107.769231 21.1564812 107.769231 23.5469857 90.9558087 23.5469857 90.9558087 0.303905978"></polyline>
            <path d="M122.674455,12.1579878 C123.52953,12.1579878 124.319574,12.0473439 125.043512,11.8260562 C125.767181,11.6050396 126.392498,11.2893791 126.918656,10.8796171 C127.445352,10.4701262 127.856498,9.97195757 128.152898,9.38538228 C128.448762,8.79907818 128.597096,8.12924879 128.597096,7.3764365 L128.597096,7.30999593 C128.597096,5.87135427 128.08115,4.74810192 127.050599,3.93969649 C126.018974,3.13210463 124.571635,2.72776632 122.706971,2.72776632 L115.600338,2.72776632 L115.600338,12.1579878 L122.674455,12.1579878 L122.674455,12.1579878 Z M113.000718,0.303905978 L122.886477,0.303905978 C124.309631,0.303905978 125.574507,0.508651398 126.6803,0.918142237 C127.785555,1.32817545 128.699748,1.89766602 129.422612,2.62824107 C129.991497,3.2042401 130.429514,3.87922202 130.736127,4.6537292 C131.04247,5.42877874 131.196179,6.28057393 131.196179,7.21047067 L131.196179,7.27691124 C131.196179,8.2510113 131.04247,9.11962002 130.736127,9.88327975 C130.429514,10.6469395 129.997409,11.311074 129.439272,11.8756832 C128.880599,12.4400212 128.217929,12.904834 127.45207,13.2701215 C126.685405,13.6356802 125.85371,13.8957476 124.955908,14.0505948 L132.030025,23.5469857 L128.838678,23.5469857 L122.165764,14.5154076 L115.600338,14.5154076 L115.600338,23.5469857 L113.000718,23.5469857 L113.000718,0.303905978 L113.000718,0.303905978 Z" id="Fill-18"></path>
            <path d="M8.42632777,12.9550034 C9.36954333,12.9550034 10.2305299,12.8335121 11.0092873,12.5897159 C11.7875073,12.3461909 12.4571635,11.9977169 13.0163748,11.5437515 C13.5758548,11.0900574 14.0033921,10.5531091 14.2997929,9.93317797 C14.5956562,9.31378918 14.743991,8.61629883 14.743991,7.84124928 L14.743991,7.7750799 C14.743991,6.1146081 14.1785991,4.85847462 13.0494277,4.00613706 C11.91945,3.15407069 10.4221289,2.72776632 8.55800174,2.72776632 L2.73425025,2.72776632 L2.73425025,12.9550034 L8.42632777,12.9550034 L8.42632777,12.9550034 Z M0.134629914,0.303905978 L8.73912062,0.303905978 C10.0303317,0.303905978 11.2073357,0.475566707 12.2695953,0.818345794 C13.3313174,1.16193844 14.2395991,1.64871728 14.9949777,2.27949589 C15.750625,2.91027449 16.3302592,3.67990032 16.7354926,4.58728863 C17.1404572,5.49521931 17.3430739,6.52464131 17.3430739,7.67528345 L17.3430739,7.74172402 C17.3430739,9.00355241 17.1020299,10.1051099 16.6207481,11.0455829 C16.1391976,11.9868694 15.4878146,12.777919 14.6674051,13.4198162 C13.846727,14.0619846 12.8890004,14.5436109 11.7950316,14.8641528 C10.7005253,15.185237 9.54071949,15.3455079 8.3150767,15.3455079 L2.73425025,15.3455079 L2.73425025,23.5469857 L0.134629914,23.5469857 L0.134629914,0.303905978 L0.134629914,0.303905978 Z" id="Fill-19"></path>
            <path d="M36.9213263,15.3475589 C33.9974302,18.3008581 29.2362767,18.3008581 26.2710241,15.3475589 C23.347128,12.3942598 23.347128,7.5846608 26.2710241,4.58888816 C29.1945757,1.59346366 33.9557291,1.63558899 36.9213263,4.58888816 C39.8865789,7.54218733 39.8865789,12.3521344 36.9213263,15.3475589 L36.9213263,15.3475589 Z M24.6679086,2.9623422 C20.8329715,6.83270859 20.8329715,13.0905964 24.6679086,16.9333018 L31.6033646,23.9326121 L38.5390893,16.9333018 C42.3740264,13.0632066 42.3740264,6.80504762 38.5390893,2.9623422 C34.7041522,-0.907753008 28.5028457,-0.907753008 24.6679086,2.9623422 L24.6679086,2.9623422 Z" id="Fill-20"></path>
            <path d="M36.2061892,13.0982758 C36.1804292,12.5098145 35.6994544,12.0406578 35.1099584,12.0406578 C34.520708,12.0406578 34.0397399,12.5098145 34.0139801,13.0982758 L33.0406499,13.0982758 L33.0406499,7.88894791 L32.9974024,7.88894791 L35.2436554,7.88894791 L36.0643109,9.71222583 C36.0643109,9.71222583 37.1009423,10.2329742 37.230685,10.6670629 L37.230685,13.0982758 L36.2061892,13.0982758 Z M33.8180579,8.36649816 L33.8180579,9.53864303 L35.4596311,9.53864303 L34.9411844,8.36649816 L33.8180579,8.36649816 Z" id="Fill-22"></path>
            <path d="M29.3487508,13.0982758 C29.3229908,12.5098145 28.842016,12.0406578 28.2525199,12.0406578 C27.6632696,12.0406578 27.1823015,12.5098145 27.1565417,13.0982758 L26.3883861,13.0982758 L26.3883861,6.36963744 L32.8676596,6.36963744 L32.8676596,13.0982758 L29.3487508,13.0982758 Z M27.2522892,10.6670629 L27.2522892,10.7974476 L32.0037565,10.7974476 L32.0037565,10.6670629 L27.2522892,10.6670629 Z M27.2522892,8.06253071 L27.2522892,8.19291536 L32.0037565,8.19291536 L32.0037565,8.06253071 L27.2522892,8.06253071 Z M27.2522892,9.40825837 L27.2522892,9.53864303 L32.0037565,9.53864303 L32.0037565,9.40825837 L27.2522892,9.40825837 Z" id="Fill-23"></path>
            <path d="M37.3515507,11.9261309 C37.3515507,12.0997137 37.2422064,12.229835 37.0966348,12.229835 C36.9510633,12.229835 36.8417189,12.0997137 36.8417189,11.9261309 L36.8417189,11.4051191 C36.8417189,11.2315363 36.9510633,11.101415 37.0966348,11.101415 C37.2422064,11.101415 37.3515507,11.2315363 37.3515507,11.4051191 L37.3515507,11.9261309" id="Fill-28"></path>
            <path d="M26.5092518,12.4903409 C26.5092518,12.6641871 26.3999075,12.7943083 26.2543359,12.7943083 C26.1087643,12.7943083 25.99942,12.6641871 25.99942,12.4903409 L25.99942,11.9695925 C25.99942,11.7957463 26.1087643,11.665625 26.2543359,11.665625 C26.3999075,11.665625 26.5092518,11.7957463 26.5092518,11.9695925 L26.5092518,12.4903409" id="Fill-29"></path>
            <path d="M35.9329773,13.1479403 C35.9329773,13.6063899 35.5644896,13.9782349 35.1099899,13.9782349 C34.6556797,13.9782349 34.287192,13.6063899 34.287192,13.1479403 C34.287192,12.6892996 34.6556797,12.3174545 35.1099899,12.3174545 C35.5644896,12.3174545 35.9329773,12.6892996 35.9329773,13.1479403" id="Fill-32"></path>
            <path d="M29.0755389,13.1479403 C29.0755389,13.6063899 28.7070512,13.9782349 28.2525515,13.9782349 C27.7982413,13.9782349 27.4297536,13.6063899 27.4297536,13.1479403 C27.4297536,12.6892996 27.7982413,12.3174545 28.2525515,12.3174545 C28.7070512,12.3174545 29.0755389,12.6892996 29.0755389,13.1479403" id="Fill-32"></path>
        </g>
    </g>
</svg>