<?xml version="1.0" encoding="UTF-8"?>
<svg width="1113px" height="24px" viewBox="0 0 1113 24" version="1.1" xmlns="http://www.w3.org/2000/svg" xmlns:xlink="http://www.w3.org/1999/xlink">
    <!-- Generator: Sketch 46.2 (44496) - http://www.bohemiancoding.com/sketch -->
    <title>Group 77@1x</title>
    <desc>Created with Sketch.</desc>
    <defs></defs>
    <g id="Home_landing" stroke="none" stroke-width="1" fill="none" fill-rule="evenodd">
        <g id="home_landing" transform="translate(-36.000000, -18.000000)" fill="#FFFFFF">
            <g id="Group-77" transform="translate(36.000000, 18.000000)">
                <g id="Porter">
                    <path d="M54.2936174,11.4706687 C55.1201,11.4706687 55.8834863,11.3636035 56.5829975,11.1494732 C57.2819893,10.9356053 57.886207,10.6301546 58.3948716,10.2336461 C58.9037958,9.8374 59.3010683,9.35534431 59.5872083,8.78774144 C59.8730887,8.22040099 60.0166781,7.57223683 60.0166781,6.8437738 L60.0166781,6.77948221 C60.0166781,5.38737255 59.51814,4.30045111 58.5221026,3.51819307 C57.5255459,2.73672227 56.1267833,2.34546205 54.3252954,2.34546205 L47.4584535,2.34546205 L47.4584535,11.4706687 L54.2936174,11.4706687 L54.2936174,11.4706687 Z M44.9465489,0 L54.498745,0 C55.8738791,0 57.0958165,0.198123053 58.1645574,0.594369158 C59.2325193,0.991140093 60.1158664,1.54221084 60.8143389,2.24915587 C61.364029,2.80652457 61.787267,3.45967461 62.0835336,4.20913082 C62.3795405,4.95911185 62.5280633,5.78335624 62.5280633,6.68317604 L62.5280633,6.74746762 C62.5280633,7.69006101 62.3795405,8.5305751 62.0835336,9.26953472 C61.787267,10.0084943 61.3697414,10.6511478 60.8301779,11.1974951 C60.2903547,11.7435799 59.6503046,12.1933586 58.9102872,12.5468312 C58.1694908,12.9005661 57.3658579,13.1522217 56.4983499,13.3020605 L63.3337735,22.4912963 L60.2501081,22.4912963 L53.8023497,13.7518392 L47.4584535,13.7518392 L47.4584535,22.4912963 L44.9465489,22.4912963 L44.9465489,0 L44.9465489,0 Z" id="Fill-15"></path>
                    <polyline id="Fill-16" points="74.3180122 2.34546205 66.738815 2.34546205 66.738815 0 84.4450313 0 84.4450313 2.34546205 76.8658341 2.34546205 76.8658341 22.4912963 74.3180122 22.4912963 74.3180122 2.34546205"></polyline>
                    <polyline id="Fill-17" points="89.2120895 0 105.396421 0 105.396421 2.31344746 91.7391606 2.31344746 91.7391606 9.99248705 103.957082 9.99248705 103.957082 12.3059345 91.7391606 12.3059345 91.7391606 20.1781113 105.556289 20.1781113 105.556289 22.4912963 89.2120895 22.4912963 89.2120895 0"></polyline>
                    <path d="M119.670675,11.4706687 C120.496898,11.4706687 121.260285,11.3636035 121.959796,11.1494732 C122.659047,10.9356053 123.263265,10.6301546 123.77167,10.2336461 C124.280594,9.8374 124.677867,9.35534431 124.964266,8.78774144 C125.250147,8.22040099 125.393476,7.57223683 125.393476,6.8437738 L125.393476,6.77948221 C125.393476,5.38737255 124.894938,4.30045111 123.899161,3.51819307 C122.902344,2.73672227 121.503841,2.34546205 119.702094,2.34546205 L112.835252,2.34546205 L112.835252,11.4706687 L119.670675,11.4706687 L119.670675,11.4706687 Z M110.323347,0 L119.875543,0 C121.250677,0 122.472875,0.198123053 123.541356,0.594369158 C124.609318,0.991140093 125.492665,1.54221084 126.191137,2.24915587 C126.740827,2.80652457 127.164065,3.45967461 127.460332,4.20913082 C127.756339,4.95911185 127.904862,5.78335624 127.904862,6.68317604 L127.904862,6.74746762 C127.904862,7.69006101 127.756339,8.5305751 127.460332,9.26953472 C127.164065,10.0084943 126.74654,10.6511478 126.207236,11.1974951 C125.667413,11.7435799 125.027103,12.1933586 124.287086,12.5468312 C123.546289,12.9005661 122.742656,13.1522217 121.875148,13.3020605 L128.710572,22.4912963 L125.626907,22.4912963 L119.179148,13.7518392 L112.835252,13.7518392 L112.835252,22.4912963 L110.323347,22.4912963 L110.323347,0 L110.323347,0 Z" id="Fill-18"></path>
                    <path d="M8.2034076,12.2419053 C9.13657977,12.2419053 9.98839848,12.1243436 10.7588637,11.8884328 C11.5287972,11.6527845 12.1913229,11.3155817 12.7445797,10.8762996 C13.2981023,10.4372799 13.7210872,9.91769888 14.0143319,9.31781902 C14.3070449,8.71846398 14.4538001,8.04353353 14.4538001,7.29355249 L14.4538001,7.22952331 C14.4538001,5.62275848 13.8944286,4.40725387 12.7772806,3.58248466 C11.659335,2.75797786 10.1779574,2.34546205 8.33367949,2.34546205 L2.5719395,2.34546205 L2.5719395,12.2419053 L8.2034076,12.2419053 L8.2034076,12.2419053 Z M0,0 L8.51286982,0 C9.79033202,0 10.9548033,0.166108467 12.0057519,0.497800571 C13.0561688,0.830279919 13.954779,1.3013142 14.7021143,1.91169065 C15.4497155,2.5220671 16.0231777,3.26679985 16.4240962,4.14483923 C16.8247487,5.02340344 17.0252079,6.01952941 17.0252079,7.13295473 L17.0252079,7.19724631 C17.0252079,8.41826163 16.7867306,9.4841899 16.3105735,10.3942439 C15.8341506,11.3050851 15.1897034,12.0705486 14.3780298,12.691684 C13.5660902,13.3130819 12.6185615,13.7791303 11.5362413,14.0893044 C10.4533894,14.4000033 9.30593324,14.5550904 8.09334113,14.5550904 L2.5719395,14.5550904 L2.5719395,22.4912963 L0,22.4912963 L0,0 L0,0 Z" id="Fill-19"></path>
                    <path d="M35.8127055,14.8395253 C32.9715565,17.7062289 28.3451451,17.7062289 25.4638101,14.8395253 C22.6226611,11.9728217 22.6226611,7.30424798 25.4638101,4.39631627 C28.3046243,1.48872249 32.9310356,1.52961264 35.8127055,4.39631627 C38.6940405,7.2630199 38.6940405,11.9319315 35.8127055,14.8395253 L35.8127055,14.8395253 Z M23.9060632,2.81746329 C20.179656,6.57434424 20.179656,12.6487406 23.9060632,16.3787716 L30.6452437,23.1728508 L37.3846853,16.3787716 C41.1110925,12.6221539 41.1110925,6.54749433 37.3846853,2.81746329 C33.658278,-0.939154429 27.6324705,-0.939154429 23.9060632,2.81746329 L23.9060632,2.81746329 Z" id="Fill-20"></path>
                    <path d="M35.1045768,12.2679798 C35.0797127,11.7290468 34.6154661,11.299377 34.0464726,11.299377 C33.4777162,11.299377 33.0134762,11.7290468 32.9886122,12.2679798 L32.0491343,12.2679798 L32.0491343,7.49709878 L32.0073909,7.49709878 L34.1755197,7.49709878 L34.967633,9.1669192 C34.967633,9.1669192 35.9682105,9.64383844 36.0934408,10.0413918 L36.0934408,12.2679798 L35.1045768,12.2679798 Z M32.7995042,7.93445567 L32.7995042,9.00794612 L34.3839838,9.00794612 L33.8835686,7.93445567 L32.7995042,7.93445567 Z" id="Fill-22"></path>
                    <path d="M28.6786758,12.9495342 C28.6543081,12.3534725 28.1993296,11.8782562 27.6416952,11.8782562 C27.0842933,11.8782562 26.6293211,12.3534725 26.6049535,12.9495342 L25.878316,12.9495342 L25.878316,6.13398991 L32.0073909,6.13398991 L32.0073909,12.9495342 L28.6786758,12.9495342 Z M26.695526,10.4869203 L26.695526,10.6189889 L31.1901809,10.6189889 L31.1901809,10.4869203 L26.695526,10.4869203 Z M26.695526,7.84874831 L26.695526,7.98081699 L31.1901809,7.98081699 L31.1901809,7.84874831 L26.695526,7.84874831 Z M26.695526,9.21185718 L26.695526,9.34392586 L31.1901809,9.34392586 L31.1901809,9.21185718 L26.695526,9.21185718 Z" id="Fill-23"></path>
                    <path d="M36.4406405,11.9011113 C36.4406405,12.1107959 36.3661761,12.2679798 36.2670406,12.2679798 C36.1679052,12.2679798 36.0934408,12.1107959 36.0934408,11.9011113 L36.0934408,11.2717394 C36.0934408,11.0620548 36.1679052,10.9048709 36.2670406,10.9048709 C36.3661761,10.9048709 36.4406405,11.0620548 36.4406405,11.2717394 L36.4406405,11.9011113" id="Fill-28"></path>
                    <path d="M25.5445074,12.5824333 C25.5445074,12.792387 25.470043,12.9495342 25.3709076,12.9495342 C25.2717721,12.9495342 25.1973077,12.792387 25.1973077,12.5824333 L25.1973077,11.9535263 C25.1973077,11.7435726 25.2717721,11.5864254 25.3709076,11.5864254 C25.470043,11.5864254 25.5445074,11.7435726 25.5445074,11.9535263 L25.5445074,12.5824333" id="Fill-29"></path>
                    <path d="M34.7314242,12.2680583 C34.7314242,12.6443372 34.4264717,12.9495342 34.0503374,12.9495342 C33.67436,12.9495342 33.3694075,12.6443372 33.3694075,12.2680583 C33.3694075,11.8916224 33.67436,11.5864254 34.0503374,11.5864254 C34.4264717,11.5864254 34.7314242,11.8916224 34.7314242,12.2680583" id="Fill-32"></path>
                    <path d="M27.921341,13.0956445 C27.921341,13.4719234 27.6163885,13.7771205 27.2402543,13.7771205 C26.8642769,13.7771205 26.5593244,13.4719234 26.5593244,13.0956445 C26.5593244,12.7192086 26.8642769,12.4140116 27.2402543,12.4140116 C27.6163885,12.4140116 27.921341,12.7192086 27.921341,13.0956445" id="Fill-32"></path>
                </g>
                <path d="M1107.14736,15.9069515 C1106.87135,15.6318911 1106.50053,15.5064501 1106.13139,15.5258408 L1106.13282,15.5246438 C1104.48055,15.5950248 1103.957,16.8961159 1103.83922,17.2741145 C1098.40264,15.4937624 1097.90375,11.3276377 1097.90375,11.3276377 L1098.95683,9.85059419 L1097.90375,11.3276377 C1098.97982,10.8850035 1099.39588,10.0856763 1099.55723,9.51784046 C1099.64317,9.30861257 1099.6774,9.08454243 1099.65897,8.86573889 C1099.65897,8.86573889 1099.65897,8.86717524 1099.65897,8.86980854 C1099.65897,8.86765402 1099.65897,8.86573889 1099.65897,8.86573889 L1099.65897,8.86573889 C1099.63335,8.56123332 1099.50672,8.26726096 1099.2781,8.0381636 L1096.62397,5.38331547 C1096.09659,4.85593672 1095.22066,4.87197592 1094.67269,5.41994232 L1093.92459,6.17234879 L1093.94494,6.19269704 C1093.69406,6.51276304 1093.48459,6.88190423 1093.32851,7.28001175 C1093.18463,7.65896798 1093.0951,8.02044866 1093.05417,8.3828869 C1092.70394,11.288617 1094.0316,13.9439439 1097.63492,17.5472599 C1102.61569,22.5277932 1106.62956,22.1514703 1106.80288,22.1330372 C1107.17992,22.0880317 1107.5414,21.9977812 1107.90887,21.855104 C1108.30338,21.7009361 1108.67229,21.4917082 1108.99211,21.2413051 L1109.00839,21.2559079 L1109.7663,20.5137953 C1110.31307,19.9658289 1110.32887,19.0903754 1109.80173,18.5613209 L1107.14736,15.9069515 Z M1099.65897,8.88058115 C1099.65897,8.87794784 1099.65897,8.87531454 1099.65897,8.87339941 C1099.65897,8.87555393 1099.65897,8.87770845 1099.65897,8.88058115 Z M1099.60606,9.318667 C1099.60606,9.31818822 1099.6063,9.31747004 1099.6063,9.31699126 C1099.6063,9.31770943 1099.6063,9.31818822 1099.60606,9.318667 Z M1099.65873,8.89757792 C1099.65873,8.89518401 1099.65873,8.8927901 1099.65897,8.89063558 C1099.65873,8.89302949 1099.65873,8.89518401 1099.65873,8.89757792 Z M1112.00724,14.4842498 C1111.45904,14.4842498 1111.01449,14.0397004 1111.01449,13.4914946 C1111.01449,8.25002479 1106.75021,3.9855104 1101.50851,3.9855104 C1100.9603,3.9855104 1100.51575,3.54096099 1100.51575,2.9927552 C1100.51575,2.44454941 1100.9603,2 1101.50851,2 C1104.57798,2 1107.46384,3.19528014 1109.63416,5.36583992 C1111.80448,7.5363997 1113,10.4220209 1113,13.4914946 C1113,14.0397004 1112.55569,14.4842498 1112.00724,14.4842498 Z M1108.11187,14.0236611 C1107.56367,14.0236611 1107.11912,13.5791117 1107.11912,13.0309059 C1107.11912,10.1912478 1104.80899,7.88112299 1101.96933,7.88112299 C1101.42113,7.88112299 1100.97658,7.43657358 1100.97658,6.88836779 C1100.97658,6.340162 1101.42113,5.89561259 1101.96933,5.89561259 C1105.90373,5.89561259 1109.10463,9.09651199 1109.10463,13.0309059 C1109.10463,13.5791117 1108.66032,14.0236611 1108.11187,14.0236611 Z" id="Shape" fill-rule="nonzero"></path>
            </g>
        </g>
    </g>
</svg>